# xmcd
#
# Track frame offsets: 
#        150
#        14782
#        28155
#        46077
#        62046
#        83046
#        97159
#        111511
#        124386
#        134428
#
# Disc length: 2101 seconds
#
# Revision: 0
# Processed by: cddbd v1.5.2PL0 Copyright (c) Steve Scherf et al.
# Submitted via: ExactAudioCopy v0.95b3
#
DISCID=9208330a
DTITLE=John Denver - Die Superhits von John Denver
DYEAR=1979
DGENRE=Country
TTITLE0=Thank god I'm a country boy
TTITLE1=Annie's song
TTITLE2=Leaving, on a jet plane
TTITLE3=Calypso
TTITLE4=Rocky Mountain High
TTITLE5=Take me home, country roads
TTITLE6=Rhymes and reasons
TTITLE7=Follow me
TTITLE8=The eagle and the hawk
TTITLE9=Sunshine on my shoulders
EXTD=
EXTT0=
EXTT1=
EXTT2=
EXTT3=
EXTT4=
EXTT5=
EXTT6=
EXTT7=
EXTT8=
EXTT9=
PLAYORDER=
